<?xml version="1.0" standalone="no"?>
<svg viewBox="0 0 200 200" xmlns="http://www.w3.org/2000/svg">
  <path fill="#FF0066" d="M24.9,-36.1C39,-29.7,61.9,-34.2,70.5,-28.4C79.2,-22.5,73.7,-6.4,66.1,5.7C58.5,17.8,48.8,25.9,41.4,37.9C34.1,49.9,29.1,65.9,19.7,70.1C10.3,74.3,-3.5,66.6,-13,57.7C-22.6,48.9,-27.8,38.8,-40.9,31.2C-53.9,23.7,-74.8,18.7,-83.3,7.5C-91.9,-3.7,-88.1,-21.1,-74.8,-27.6C-61.6,-34.1,-39,-29.8,-25,-36.3C-10.9,-42.8,-5.5,-60.1,0,-60C5.4,-60,10.8,-42.6,24.9,-36.1Z" transform="translate(100 100)" />
</svg>
